<svg preserveAspectRatio="none" width="100%" height="100%" overflow="visible" style="display: block;" viewBox="0 0 36 36" fill="none" xmlns="http://www.w3.org/2000/svg">
<g id="iconstack.io - (Clock Check)">
<path id="Vector" d="M31.413 19.5315C31.7199 16.8433 31.212 14.1248 29.9551 11.7288C28.6982 9.33277 26.7504 7.36969 24.3642 6.0942C21.978 4.81871 19.2636 4.28966 16.5731 4.57568C13.8825 4.8617 11.34 5.94958 9.27531 7.69823C7.21061 9.44687 5.71898 11.7756 4.99391 14.3823C4.26884 16.9891 4.34379 19.7535 5.20903 22.3171C6.07427 24.8807 7.68987 27.1252 9.84629 28.7594C12.0027 30.3936 14.6004 31.3422 17.3025 31.482" stroke="var(--stroke-0, #0085CA)" stroke-width="2.5" stroke-linecap="round" stroke-linejoin="round"/>
<path id="Vector_2" d="M18 10.5V18L22.5 22.5" stroke="var(--stroke-0, #0085CA)" stroke-width="2.5" stroke-linecap="round" stroke-linejoin="round"/>
<path id="Vector_3" d="M22.5 28.5L25.5 31.5L31.5 25.5" stroke="var(--stroke-0, #0085CA)" stroke-width="2.5" stroke-linecap="round" stroke-linejoin="round"/>
</g>
</svg>
