<svg width="100%" height="100%" viewBox="0 0 24 24" fill="none" xmlns="http://www.w3.org/2000/svg">
  <path d="M12 2.5L4 5.5V11C4 15.695 7.582 19.756 12 21C16.418 19.756 20 15.695 20 11V5.5L12 2.5Z" stroke="var(--stroke-0, #0085CA)" stroke-width="1.8" stroke-linecap="round" stroke-linejoin="round"/>
  <path d="M12 7.5V8.25M12 15.75V16.5" stroke="var(--stroke-0, #0085CA)" stroke-width="1.6" stroke-linecap="round"/>
  <path d="M10 10C10 9.172 10.895 8.5 12 8.5C13.105 8.5 14 9.172 14 10C14 10.828 13.105 11.5 12 11.5C10.895 11.5 10 12.172 10 13C10 13.828 10.895 14.5 12 14.5C13.105 14.5 14 13.828 14 13" stroke="var(--stroke-0, #0085CA)" stroke-width="1.6" stroke-linecap="round"/>
</svg>
